<?xml version="1.0" encoding="utf-8"?>
<!-- Generator: Adobe Illustrator 26.0.1, SVG Export Plug-In . SVG Version: 6.00 Build 0)  -->
<svg version="1.1" id="Layer_1" xmlns="http://www.w3.org/2000/svg" xmlns:xlink="http://www.w3.org/1999/xlink" x="0px" y="0px"
	 viewBox="0 0 2668.9 2974.8" style="enable-background:new 0 0 2668.9 2974.8;" xml:space="preserve">
<style type="text/css">
	.st0{fill:#FFFFFF;}
	.st1{enable-background:new    ;}
	.st2{fill:#14359C;}
	.st3{font-family:'MuseoSans-500';}
	.st4{font-size:222px;}
	.st5{letter-spacing:-17;}
	.st6{fill:none;}
</style>
<g id="Layer_2_00000041290849629554834020000017872737136766001573_">
	<g id="Layer_1-2">
		<path d="M2667.5,1548.8c-0.2-1.8-0.3-3.6-0.3-5.5c0.1-13.4-1.1-26.7-2.3-40c-1.3-14.2-3-28.4-4.6-42.6c-1.2-10.3-2.5-20.5-4-30.7
			c-2-13.5-3.9-27.1-6.3-40.5c-4.1-23.3-8.7-46.6-14-69.7c-21.9-95.4-54-187.2-97.6-275c-64.6-130.1-150.5-244.4-256.2-344
			c-22.6-21.3-45.9-41.7-69.9-61.3c-2.1-1.7-4.6-3-6-5.9c0.4-1.2,0.9-2.6,1.5-4c15-30.7,26-62.8,35.6-95.5
			c7.9-26.8,15.2-53.8,21.3-81c4.6-20.8,8.7-41.6,12.1-62.6c2.3-14.1,4.5-28.2,6.5-42.3c1.7-11.7,3-23.5,4.4-35.3
			c1.6-14.2,3.2-28.4,4.7-42.6c0.8-7.2,1.4-14.5,2.1-21.8c0.9-10.3,1.6-20.6,2.4-30.9c0.9-11.2,1.9-22.4,2.8-33.6
			c0.7-9.1,1.4-18.2,2-27.3c0.9-12.1,1.6-24.3,2.5-36.4c0.9-11.5,1.8-23,2.7-34.5c0.7-9.4,1.5-18.8,2.2-28.2
			c0.9-11.8,1.6-23.7,2.5-35.5c0.2-2.7,0.6-5.4,0.8-8.2c0.1-1.8,0-3.6,0-5.4c-0.6-0.1-1.3-0.5-1.6-0.2c-1.7,1.2-3.4,2.5-5,3.9
			c-14.1,12.9-28.2,25.9-42.3,38.8L1911,374.8c-10.3,9.5-20.6,18.9-30.9,28.4c-2,1.8-4.1,3.6-5.8,5.1c-3.1,0.5-5.2-1.1-7.3-2
			c-24.2-10.5-48.8-20.3-73.6-29.4c-56.8-20.8-114.9-37.6-174-50.4c-24.3-5.3-48.8-9.9-73.4-13.8c-20.1-3.2-40.2-6.1-60.5-8.1
			c-5.7-0.6-11.5-1.3-17.2-1.8c-2.5-0.1-4.7-1.8-5.4-4.2c-0.8-2.3-1.9-4.5-2.8-6.7c-39.2-94.2-78.5-188.4-117.8-282.6
			c-1.2-2.8-2.4-5.5-3.8-8.3c-0.2-0.4-1-0.5-1.9-0.9l0,0c-1.2,2.7-2.5,5.4-3.7,8.2c-17.9,42.9-35.7,85.8-53.6,128.7
			c-21.6,51.9-43.2,103.7-64.9,155.6c-4.2,10-2.2,9-13.6,10.1c-23.9,2.3-47.7,5.4-71.4,9c-110.9,17-219.2,48-322.3,92.4
			c-10.2,4.4-8.1,4.8-16.4-2.8c-94.3-86.5-188.5-173-282.8-259.5L369,14c-2-1.8-4.1-3.6-6.2-5.4c-0.6-0.5-1.2-0.6-1.6,0
			c-0.4,0.4-0.7,0.9-0.7,1.5c0.1,3.3,0.2,6.7,0.5,10c1.1,14.9,2.2,29.7,3.4,44.5c0.9,11.2,1.9,22.4,2.7,33.6
			c0.7,8.5,1.3,17,1.9,25.4c0.8,11.8,1.6,23.6,2.5,35.5c0.9,12.4,1.9,24.8,2.9,37.3c0.7,8.2,1.3,16.4,2,24.5c0.8,10,1.6,20,2.5,30
			c0.8,9.4,1.8,18.8,2.8,28.1c0.7,7.2,1.6,14.5,2.3,21.8c2.1,21.2,4.9,42.2,8,63.3c5.9,39.7,13.3,79.1,23.3,117.9
			c8.1,31.2,16.7,62.2,27.3,92.6c6.9,20.1,15.1,39.8,24.5,58.8c0.7,1.3,1.4,2.7,1.9,4.1c0.2,0.9,0.1,1.8-0.4,2.5
			c-1.7,1.7-3.6,3.3-5.5,4.8c-28.9,23.7-56.8,48.6-83.7,74.6C300,796.3,231.6,881.6,175,976.4c-47.5,79.7-85.6,164.5-113.6,253
			c-14.8,46.6-26.9,94-36.2,142.1c-4.6,23.6-8.5,47.2-11.8,71c-2.4,17.8-4.7,35.5-6.4,53.4c-1.8,19-3.3,38.1-4.5,57.2
			c-0.5,9.1-1.5,27.4-2,51c-0.5,23.8-1.5,72.8,2.8,130.5c1.6,21.7,4,43.5,4.6,49.9c1.3,12.4,2.7,24.8,4.4,37.1
			c1.7,12.9,3.7,25.9,5.9,38.7c3.5,20.7,7.5,41.2,11.9,61.7c12.4,57.6,28.6,114.3,48.7,169.7c52.7,146.4,130.7,282.5,230.5,401.9
			c118.5,142.1,260.3,255.1,425.4,339c88.4,44.8,181.5,79.5,277.7,103.5c31.2,7.8,62.7,14.5,94.4,19.9c18,3.1,35.9,6,54,8.1
			c13,1.5,25.9,3.3,38.9,4.7c9.7,1,19.4,1.8,29.1,2.5c10.9,0.8,21.8,1.5,32.7,2.2c1.8,0.1,3.7,0.2,5.2,1.4h136.8
			c1.1-0.5,2.3-0.8,3.4-1.1c2.1-0.3,4.2-0.4,6.4-0.5c19.1-0.7,38.2-2.5,57.2-4.4c29.3-3,58.5-6.9,87.6-11.8
			c231.9-39.2,449.3-139.1,630-289.7c118.4-98.2,219-216.1,297.3-348.5c62.9-105.9,110.7-220.1,142-339.3c9.1-34.4,16.7-69,23-104
			c3.9-21.8,7.3-43.7,10-65.8c2-16.6,3.8-33.2,5.4-49.8c1-10,1.3-20,1.6-30c0.1-3.3-0.2-6.7,1.7-9.8v-166
			C2668.3,1552.3,2667.9,1550.5,2667.5,1548.8z M1209.4,495.8c0.9-2.9,1.9-5.7,3-8.5c16.5-39.5,32.9-79,49.4-118.5
			c23.5-56.3,47-112.7,70.4-169c1.3-3.1,2.8-6,4.3-9c0.1-0.2,1.4-0.2,1.5,0.1c1.1,1.8,2.1,3.7,3,5.6c6.2,14.8,12.4,29.7,18.6,44.6
			c34.3,82.4,68.7,164.8,103,247.2c1,2.2,1.9,4.5,2.6,6.8c1.7,6.2,1.3,12.8-1.2,18.8c-2.5,6.2-5,12.4-7.6,18.5
			c-38.3,93.5-76.6,187.1-114.9,280.7c-0.8,2-1.5,4-2.5,5.8c-0.4,0.7-1.4,1-2.1,1.5c-2.4-3.1-3.3-6.6-4.7-10
			c-17.3-42.1-34.5-84.3-51.8-126.4c-22.5-55.1-45.1-110.1-67.7-165.2c-1.3-3.1-2.4-6.2-3.4-9.4C1208,504.8,1208,500.1,1209.4,495.8
			L1209.4,495.8z M1278.5,2900.3c-0.4,0.5-0.9,0.7-1.5,0.8c-1.2,0-2.4,0-3.6-0.1c-3.6-0.2-7.3-0.5-10.9-0.7
			c-15.2-0.6-30.3-1.8-45.4-3.4c-13.9-1.5-27.8-2.7-41.7-4.5c-14.8-1.9-29.4-4.3-44.1-6.5c-21-3.1-41.9-7.2-62.6-11.8
			c-52.8-11.4-104.8-26.2-155.7-44.5c-13.4-4.8-26.7-10-40.1-15c-1.7-0.6-3.4-1.4-4.9-2.3c-0.6-0.6-1-1.5-0.8-2.4
			c0.8-2.3,1.7-4.5,2.7-6.7c10.2-23.4,20.6-46.6,30.6-70.1c19.5-45.8,37.8-92.1,54.7-138.9c1.1-3.1,2.5-6.2,3.9-9.2
			c0.2-0.3,1-0.5,1.6-0.5c0.6,0.1,1.2,0.3,1.7,0.6c1.5,1,3,2.1,4.4,3.2c37.5,28.5,74.3,57.8,109.9,88.7
			c53.5,46.5,103.4,96.6,148.6,151.3c17.2,20.9,33.7,42.3,49.5,64.2c1.4,2,2.7,4,4,6.1C1278.9,2899.1,1278.8,2899.7,1278.5,2900.3
			L1278.5,2900.3z M1790.7,2817.6c-46.7,18.1-94.5,33.4-143,45.8c-30,7.7-60.2,14.2-90.8,19.6c-17.6,3.1-35.3,6-53.1,8.2
			c-12.7,1.5-25.3,3.2-38,4.6c-9.4,1-18.8,1.8-28.1,2.4c-13.9,1-27.9,1.9-41.8,2.8c-2.7,0.2-5.4,0.6-8.4-0.1c0-0.9-0.3-1.9,0-2.6
			c1-1.9,2-3.7,3.2-5.5c65.9-104.7,146-197,241.1-276.1c17.3-14.4,34.8-28.4,52.7-42c1.9-1.4,3.6-3.3,6-3.7l0,0
			c1.7,1.2,2.2,3,2.9,4.7c5.4,13.9,10.8,27.7,16.4,41.5c25.7,63.3,54,125.5,85,186.4c0.3,0.5,0.5,1.1,0.8,1.6
			C1800.6,2814.8,1800.8,2813.6,1790.7,2817.6L1790.7,2817.6z M2597.8,1660.4c-0.2,22.8-1.4,45.5-3.1,68.3
			c-0.8,10.9-1.5,21.8-2.6,32.7c-1.3,13.3-2.9,26.6-4.6,39.8c-1.3,10.6-2.8,21.1-4.4,31.6c-2,13.2-3.8,23.1-5.2,30.5
			c-1.7,9.5-7.3,39.2-16.9,79.7c0,0-1,4.3-1.9,8.1c-33.1,129.8-86.7,253.5-158.8,366.3c-1.6,2.6-3.4,5.1-5.1,7.5
			c-0.8,0.9-2.3,1.1-3.3,0.3c-3.2-2.7-6.5-5.3-6.9-6c-3.8-6.6-58.1-48-116.4-101.2l-17.1-0.4c0.7,26.7,1.3,53.3,2,80
			c24.4,19.9,43.1,36.9,55.9,49.1l36.6,35.5l0,0c1.8,1.6,4,2.8,5,5.2l0,0c0.3,1.8-1,2.9-1.8,4c-6.8,9-13.5,18-20.5,26.8
			c-46.9,59.8-99.1,115.3-156,165.8c-1.8,1.6-3.7,3.2-5.5,4.8c-1,1-2.7,1-3.8,0c-0.1-0.1-0.2-0.2-0.2-0.3c-4.9-5.4-7.6-7.8-8.5-9.5
			c-2.9-5.5-36.5-50-87.1-116.3h-83c18,31.3,35.2,57.8,50,79.2c33.2,48.1,65.1,85.1,67.7,88.2c1.2,1.4,2.4,2.7,3.6,4.1
			c2.1,2.6,2,3.6-0.9,5.9c-1.4,1.1-2.9,2.2-4.3,3.3c-26.1,19.9-52.9,38.8-80.5,56.7c-45.9,29.8-93.7,56.5-143.1,80
			c-10.3,4.9-9.1,5.1-14-4.6c-6-11.9-21.2-34.8-29.9-50.4c-11.5-20.7-56.6-120.5-103.6-262.5h-69c2.4,21.9,3.6,31.6,3.8,32.3
			c0,0,0,0.1,0,0.2c0.2,0.7,0.2,1.5,0,2.3c-0.3,0.9-0.9,1.8-1.8,2.3c-2,1.4-3.9,2.9-5.8,4.4c-30.2,22.5-59.8,45.9-88.3,70.5
			c-83.7,72.1-157.2,155.2-218.5,247.1c-4.7,7.1-9.4,14.2-14.1,21.3c-0.8,1.2-1.5,2.6-3,3.2l0,0c-1.7-0.3-2.5-1.6-3.4-2.8
			c-3.4-4.6-6.8-9.3-10.3-13.9c-48.5-65-103-124.5-162.7-179.3c-35.6-32.7-72.7-63.6-110.8-93.4c-17.7-13.8-35.7-27.4-53.5-41
			c-1.5-1.1-2.9-2.2-4.4-3.3s-2.2-1.9-2.5-2.8c-0.3-1.3-0.2-2.7,0.4-3.9l0.1-0.3c0.6-1.2,16-87.1,50.7-282.8l-68-3
			c-8,45.4-34.4,191.1-76.5,334.7c-53.2,181.6-82.9,206-88.7,218.6c-4.7,10.3-3.4,10-13.5,5.2c-76.2-36.7-148.5-80.9-215.8-132
			c-1.7-1.3-3.4-2.6-5-3.9c-1.2-1-1.3-2.7-0.4-3.8c0-0.1,0.1-0.1,0.2-0.2c0.8-0.9,1.6-1.9,2.4-2.8c38.4-42.9,71.6-89.8,100.9-139.3
			c34.8-58.8,55.9-105.9,73-145.8c21.9-51.2,37.5-96.2,48.4-130.8h-68c-25.4,60.5-49.2,110.3-67.7,147.5
			c-41.6,83.2-67.5,123.1-78.2,138.8c-18.7,27.7-39.2,54.2-61.4,79.2c-1.4,1.6-2.8,3.2-4.3,4.7c-3.8,4.1-4,4.2-8,0.8
			c-1.4-1.2-2.8-2.4-4.1-3.6c-21.7-19.1-42.7-38.9-63-59.4c-39.8-40.2-76.8-83-110.9-128.1c-2-2.7-4-5.3-6-8
			c-0.7-0.8-1.1-1.8-1.1-2.8c0.2-1.1,0.9-2,1.8-2.6c2.4-1.8,71.5-69.1,170.9-166.4h-83c-89.7,71.2-124.3,99.8-126.2,102.9
			c-0.2,0.4-2.6,2.2-4.9,4.1c-0.8,0.5-1.8,0.4-2.5-0.2c-1.4-2-2.9-3.9-4.2-5.9c-69.7-108.3-122.2-226.6-155.9-350.9
			c-2-7.3-3.6-13.4-4-15c-4.6-17.7-11.7-46.9-18.6-83.8c-5.1-27.5-7.9-48.2-8.8-53.9c-1.8-12-3.1-24.1-4.4-36.2
			c-1.7-16.3-3.3-32.6-4.7-49c-1-11.5-1.6-23-2-34.6c-1.6-39.8-1.4-79.6,0-119.4c0.5-13.4,1.3-24.2,1.7-30.9
			c2.7-40.5,6.7-72.2,9.1-90c2.3-17.1,4.5-30.6,5.8-37.8c3.6-21.3,7.7-42.4,12.3-63.5c21.3-96.1,57.2-185.2,57.2-185.2
			s71.4-177.1,213.9-340.7c33-37.9,80.6-81.1,84.3-84.5c1.6-1.4,3.2-2.8,4.8-4.1c0.5-0.3,1.1-0.4,1.7-0.2c0.4,0.4,0.7,0.9,0.7,1.5
			c0.1,0.9,0,1.8,0,1c-0.8,8-1.4,14.4-2.1,20.7c-1.8,16.9-3.6,33.8-5.5,50.8c-2.1,19.6-4.4,39.2-6.5,58.9s-4.1,39.3-6.1,58.9
			c-0.8,7.1-1.5,14.3-2.4,21.4h55.9c7.7,0,15.5-0.2,23.3-0.2c0.1-1,0.2-2.1,0.4-3.4c1.3-11.8,2.5-23.6,3.8-35.4
			c1.5-13.9,3.1-27.8,4.6-41.7s2.9-27.8,4.4-41.7c0.9-8.5,1.9-16.9,2.8-25.4c0.9-8,1.5-14.6,1.8-17.5c2.1-51.9,4.2-103.7,6.4-155.6
			c-13.3-48.9-25-88.4-33-114.9c0,0-30.7-101.2-47.7-174.8c-3.3-14.1-5.8-28.4-7.6-42.8c-2.7-22.2-0.5-19.5-2.9-38.9
			c0,0-3.7-30.1-2.7-73c0.1-0.6,0.3-1.1,0.6-1.6c0.3-0.6,1.4-0.4,2.4,0.5c1.6,1.4,3.2,2.8,4.7,4.3l39,35.7l331.8,304.6l130.2,119.5
			c35.7,32.6,66,70.5,89.8,112.5c23.5,41.1,40.3,85.7,49.8,132.1c0.2,1,3.1,17.1,7,38.5c1.4,7.9,2.6,14.4,3.3,18.8l66.3,1.5
			c-1.1-6.2-2.3-13.2-3.6-20.8c-3.3-19.1-5.3-31.2-5.8-34.4c-4.7-27.5-17.8-77.8-44.4-131.7c-29.3-59.7-69.5-113.3-118.6-158
			c-46.4-42.4-92.8-85-139-127.6c-2-1.9-4-3.7-6-5.6c-0.5-0.7-1-1.5-1.4-2.3c2.2-2.4,5.3-3,8.1-4.1c27.1-10.8,54.5-20.7,82.3-29.6
			c46-14.7,92.8-26.8,140.2-36.1c23.8-4.7,47.8-8.8,71.9-11.9c4.8-0.6,9.5-1.9,14.4-1.4c0.8,0.3,1.4,1.1,1.4,2
			c-0.1,0.6-0.3,1.2-0.5,1.8c-0.8,2-1.6,3.9-2.4,5.9c-10,24.1-20,48.2-30.2,72.3c-6,13.7-8.9,28.5-8.6,43.5
			c0.3,11.6,2.5,23,6.7,33.8c3.2,8.2,6.6,16.3,9.9,24.5c60.2,147,120.4,294,180.6,441c1,2.6,2.2,5.1,3.4,7.8l2.1,0.6
			c0.4-0.2,0.7-0.5,0.9-0.9c1-1.9,1.7-3.9,2.5-5.9c45.5-111,90.9-222,136.4-333.1c17.4-42.4,34.8-84.9,52.1-127.3
			c2.5-5.9,4.6-11.9,6.3-18.1c5.5-21.4,3.8-44-4.8-64.3c-7.7-18.5-15.4-37-23.2-55.5c-3.2-7.6-6.3-15.1-9.4-22.7
			c-0.4-1.1-0.6-2.3-0.7-3.5c-0.1-0.5,0.2-1.1,0.7-1.2c0.1,0,0.2,0,0.3,0c0.9-0.2,1.8-0.2,2.7-0.1c8.4,1.1,16.9,2.2,25.3,3.6
			c15.9,2.7,31.7,5.4,47.6,8.4c47.5,9,94.3,20.8,140.4,35.4c30.4,9.6,60.4,20.3,90,32.3c2,0.8,4,1.5,5.9,2.5
			c0.7,0.4,1.2,1.2,1.8,1.8c-1,2.5-3.1,3.9-4.9,5.5c-23.3,21.4-46.6,42.8-69.8,64.1c-24.2,22.2-48.4,44.4-72.5,66.6
			c-61.8,57.1-107.6,125.1-137.2,203.9c-11.7,31-20.4,63-26,95.7c-2.2,12.9-4,25.8-5.9,38.7c-0.5,3.5-1.3,8.7-2.5,16.5
			c-2.3,14.9-4,25.7-4.1,26.8c-8.1,52.2-5.1,128.6-5.1,128.6c0.3,8.1,0.7,16.3,1.3,24.7c1.1,17.5,2.6,34.3,4.5,50.6h92
			c-11.6-21.5-20.3-44.3-26-68c-10-41.6-8.1-76.2-7-95c1.2-21.8,4.4-43.3,6.8-60c2-13.8,4.2-26.8,5.1-32c2.6-14.9,4.8-26.4,7.3-39.9
			c8.6-46.1,24.4-89.6,46.7-130.8c24-44.5,55.4-84.6,92.7-118.8l167.3-153.5l260-238.6c24.9-22.8,49.7-45.6,74.6-68.4
			c2-1.8,4.1-3.6,6.2-5.3c0.3-0.3,1.1-0.1,1.6,0c0.2,0.1,0.4,0.4,0.4,0.7c-0.1,4.2-0.1,8.5-0.4,12.7c-1,13-2.1,26-3.3,39.1
			c-0.8,9.4-1.8,18.7-2.8,28.1c-0.7,6.6-1.5,13.3-2.1,20c-2,21.5-4.9,42.9-8,64.2c-6.3,43.1-20.6,102.3-31.4,146.9
			c-7.2,29.7-18.4,76.4-32.3,136.1l-7.5,147.6c1.5,13.9,2.8,27.8,4.3,41.7s3.1,27.8,4.6,41.7c0.7,6.6,1.5,13.3,2.2,19.9
			c1.4,13.9,2.8,27.8,4.3,41.7c3.2,30,3.5,29.7,4.2,38c0.6,7.5,2.6,36.5-3.1,66.3c-5.6,29.5-18.6,52.8-32.3,76.9
			c-18.2,31.9-40,61.6-65,88.6h122c14.1-25.8,32.2-63.4,42.7-104.7c3.3-12.8,5.7-25.3,5.9-26.6c4.3-23.5,6-45.1,7.4-70.3
			c1.2-21,2.1-38.6-0.1-60.8c-0.3-3.2-0.5-4.9-4.6-42.6c-0.7-6.6-1.5-13.3-2.2-19.9c-2.1-19.9-4.1-39.9-6.2-59.8
			c-2.1-19.6-4.3-39.2-6.5-58.9c-0.7-6-1.3-12.1-1.9-18.1c-0.1-1.2-0.1-2.4,0-3.6l0,0c0.8-0.1,1.6-0.4,1.9-0.1
			c2,1.4,3.9,2.9,5.7,4.5c16.5,14.8,32.5,30.1,48.2,45.8c37.4,37.4,72.2,77.3,104.2,119.4c29.2,38.5,50.1,71.4,62.1,91.1
			c0,0,92.3,151.2,135.1,332.5c9.2,38.9,15.8,78.6,15.8,78.6c0.8,4.7,3.4,20.5,6.2,42.4c7.6,60.4,11.8,121.1,12.6,182
			C2598,1644.8,2597.8,1657.1,2597.8,1660.4L2597.8,1660.4z"/>
		<path d="M540.5,787.4c-0.1,0.5-0.2,1-0.2,1.6c-0.1,2.3-0.2,4.5-0.3,6.8C540.5,788.8,540.6,787.4,540.5,787.4z"/>
		<path d="M1187.6,1274.2l-0.4,0.1l0.2-0.3C1187.4,1274,1187.5,1274.1,1187.6,1274.2z"/>
		<path class="st0" d="M1489,1276.5h-0.4c0,0,0.6,0.3,0.6,0.3L1489,1276.5z"/>
		<path class="st0" d="M1180,1286.5l-0.4,0.1c0,0,0.2-0.3,0.2-0.3S1180,1286.5,1180,1286.5z"/>
		<path d="M2148.4,589c-7.2,11-15.6,21.1-25.1,30.2l-310.7,289.2l49.8,53.5l278-258.8C2145.2,665.3,2147.9,627.2,2148.4,589z"/>
		<path d="M831.5,953.8l42-45.2L564.6,619.3c-20.8-19.4-36.6-46.4-49.1-75.4c1.9,51.8,14.3,103.7,25.9,153.8l273,256H831.5z"/>
		<g class="st1">
			<path class="st2" d="M360.7,1007.3h21.8l69.7,101.9c5.8,8.4,13.1,22.6,13.1,22.6h0.4c0,0-1.6-14-1.6-22.6v-101.9h22V1164h-21.5
				l-69.9-101.7c-5.8-8.7-13.1-22.9-13.1-22.9h-0.4c0,0,1.6,14,1.6,22.9V1164h-22V1007.3z"/>
			<path class="st2" d="M594.1,1093.8h4.9v-2c0-18.4-10.4-24.6-24.6-24.6c-17.3,0-31.3,10.9-31.3,10.9l-8.9-15.8
				c0,0,16.2-13.3,42-13.3c28.4,0,44.4,15.5,44.4,44v71h-20v-10.7c0-5.1,0.4-8.9,0.4-8.9h-0.4c0,0-9.1,22.2-36,22.2
				c-19.3,0-38.2-11.8-38.2-34.2C526.4,1095.4,575.2,1093.8,594.1,1093.8z M569.2,1149.3c18.2,0,30-19.1,30-35.7v-3.6h-5.5
				c-16.2,0-45.5,1.1-45.5,21.3C548.1,1140.5,555.2,1149.3,569.2,1149.3z"/>
			<path class="st2" d="M665.1,1134.9c0,0,12.7,13.1,32.2,13.1c9.3,0,18.6-4.9,18.6-14c0-20.6-57.7-16.4-57.7-53.1
				c0-20.4,18.2-32,40.6-32c24.6,0,36.2,12.4,36.2,12.4l-8.7,16.2c0,0-10-10-27.8-10c-9.3,0-18.4,4-18.4,13.8
				c0,20.2,57.7,15.8,57.7,52.6c0,18.6-16,32.6-40.6,32.6c-27.5,0-42.6-16.4-42.6-16.4L665.1,1134.9z"/>
			<path class="st2" d="M817.8,1049c26,0,34.6,17.8,34.6,17.8h0.4c0,0-0.4-3.3-0.4-7.5v-51.9H874V1164h-20.4v-10.7
				c0-4.4,0.2-7.5,0.2-7.5h-0.4c0,0-9.1,20.9-36.9,20.9c-30.4,0-49.5-24-49.5-58.8C767,1072.1,788.1,1049,817.8,1049z M820.7,1148
				c16.6,0,32.4-11.8,32.4-40.4c0-20-10.4-40-31.7-40c-17.8,0-32.4,14.7-32.4,40.2C789,1132.2,802.1,1148,820.7,1148z"/>
			<path class="st2" d="M977.5,1093.8h4.9v-2c0-18.4-10.4-24.6-24.6-24.6c-17.3,0-31.3,10.9-31.3,10.9l-8.9-15.8
				c0,0,16.2-13.3,42-13.3c28.4,0,44.4,15.5,44.4,44v71h-20v-10.7c0-5.1,0.4-8.9,0.4-8.9h-0.4c0,0-9.1,22.2-36,22.2
				c-19.3,0-38.2-11.8-38.2-34.2C909.7,1095.4,958.6,1093.8,977.5,1093.8z M952.6,1149.3c18.2,0,30-19.1,30-35.7v-3.6H977
				c-16.2,0-45.5,1.1-45.5,21.3C931.5,1140.5,938.6,1149.3,952.6,1149.3z"/>
			<path class="st2" d="M1090.7,1049c26,0,35.5,18.9,35.5,18.9h0.4c0,0-0.2-3.3-0.2-7.8v-8.4h20.4v156.7h-21.5v-51.3
				c0-5.8,0.4-9.8,0.4-9.8h-0.4c0,0-9.3,19.3-36,19.3c-30.4,0-49.5-24-49.5-58.8C1039.8,1072.1,1060.9,1049,1090.7,1049z
				 M1093.6,1148c16.6,0,32.4-11.8,32.4-40.4c0-20-10.4-40-31.7-40c-17.8,0-32.4,14.7-32.4,40.2
				C1061.8,1132.2,1074.9,1148,1093.6,1148z"/>
		</g>
		<g class="st1">
			<path class="st2" d="M1148.6,2253.7h15.4v36.7c0,4-0.3,6.8-0.3,6.8h0.3c0,0,6.8-13.7,25.8-13.7c21.6,0,35.3,17.2,35.3,42.1
				c0,25.6-15.4,42.1-36.6,42.1c-18,0-25.3-13.8-25.3-13.8h-0.3c0,0,0.3,2.5,0.3,6v5.9h-14.6V2253.7z M1186.3,2354.7
				c12.7,0,23.2-10.5,23.2-28.8c0-17.5-9.4-28.8-22.7-28.8c-12.1,0-23.2,8.4-23.2,28.9C1163.5,2340.4,1171,2354.7,1186.3,2354.7z"/>
		</g>
		<g class="st1">
			<path class="st2" d="M1241.8,2382.7c0,0,4.5,3.3,9.4,3.3c6.2,0,11.4-4.5,14.5-11.8l4-9.2l-33.7-79.5h17.3l20.2,52.6
				c1.6,4.1,3,9.7,3,9.7h0.3c0,0,1.3-5.4,2.7-9.5l19.6-52.8h16.7l-37.7,94.9c-4.9,12.4-14.8,18.9-26.1,18.9
				c-9.1,0-15.6-4.9-15.6-4.9L1241.8,2382.7z"/>
		</g>
		<text transform="matrix(1 0 0 1 1303.47 2365.96)" class="st2 st3 st4 st5"> </text>
		<g class="st1">
			<path class="st2" d="M1343.4,2209.2h23.8L1406,2320c2.9,8.4,6,21.5,6,21.5h0.4c0,0,3.1-13.1,6-21.5l39.3-110.8h23.3l-57.7,156.7
				h-22L1343.4,2209.2z"/>
		</g>
		<g class="st1">
			<path class="st2" d="M1563.4,2295.8h4.9v-2c0-18.4-10.4-24.6-24.6-24.6c-17.3,0-31.3,10.9-31.3,10.9l-8.9-15.8
				c0,0,16.2-13.3,42-13.3c28.4,0,44.4,15.5,44.4,44v71h-20v-10.7c0-5.1,0.4-8.9,0.4-8.9h-0.4c0,0-9.1,22.2-36,22.2
				c-19.3,0-38.2-11.8-38.2-34.2C1495.7,2297.4,1544.6,2295.8,1563.4,2295.8z M1538.6,2351.3c18.2,0,30-19.1,30-35.7v-3.6h-5.5
				c-16.2,0-45.5,1.1-45.5,21.3C1517.5,2342.4,1524.6,2351.3,1538.6,2351.3z"/>
			<path class="st2" d="M1631.8,2209.2h21.5v122.3c0,13.5,5.3,16,12,16c2,0,3.8-0.2,3.8-0.2v19.1c0,0-3.3,0.4-7.1,0.4
				c-12.2,0-30.2-3.3-30.2-31.5V2209.2z"/>
			<path class="st2" d="M1703.1,2209.2h21.5v85.7h15.8l30.6-41.3h24.4l-37.3,49.5v0.4l41.5,62.4h-25.1l-33.7-52.8h-16.2v52.8h-21.5
				V2209.2z"/>
			<path class="st2" d="M1822.7,2389.3c0,0,6.2,4.7,13.1,4.7c8.7,0,16-6.2,20.2-16.4l5.5-12.9l-47.1-111h24.2l28.2,73.5
				c2.2,5.8,4.2,13.5,4.2,13.5h0.4c0,0,1.8-7.5,3.8-13.3l27.3-73.7h23.3l-52.6,132.5c-6.9,17.3-20.6,26.4-36.4,26.4
				c-12.7,0-21.8-6.9-21.8-6.9L1822.7,2389.3z"/>
			<path class="st2" d="M1955.3,2253.6h20.9v19.5c0,4.7-0.4,8.4-0.4,8.4h0.4c5.1-16.4,18.2-29.3,35.5-29.3c2.9,0,5.5,0.4,5.5,0.4
				v21.3c0,0-2.9-0.7-6.2-0.7c-13.8,0-26.4,9.8-31.5,26.4c-2,6.4-2.7,13.3-2.7,20.2v46h-21.5V2253.6z"/>
			<path class="st2" d="M2049.4,2209.2h21.8v22h-21.8V2209.2z M2049.6,2253.6h21.5V2366h-21.5V2253.6z"/>
			<path class="st2" d="M2164.4,2251c31.7,0,48.6,23.5,48.6,52.6c0,2.9-0.7,9.3-0.7,9.3h-81.9c1.1,24.6,18.6,37.1,38.6,37.1
				c19.3,0,33.3-13.1,33.3-13.1l8.9,15.8c0,0-16.7,16-43.5,16c-35.3,0-59.5-25.5-59.5-58.8C2108.2,2274.1,2132.4,2251,2164.4,2251z
				 M2191,2296.7c-0.7-19.3-12.7-28.6-27.1-28.6c-16.4,0-29.7,10.2-32.9,28.6H2191z"/>
		</g>
		<path class="st0" d="M1921.5,1713v440.3c0,3,0,6,0,9c0,1.3,0.1,2.7,0.2,4c0.3,1.5,1.5,2.6,3,2.7c1.7,0.1,3.3,0.3,5,0.3
			c43.2,0,86.4,0,129.6,0c1.6,0,3.3-0.2,4.9-0.3c1.3-0.1,3.1-1.6,3.1-2.7c0.2-3.7,0.4-7.4,0.4-11c0-128.1,0-256.1,0-384.2
			c0-3.3,0-6.7,0.1-10c0.1-3,1.7-4.4,5.1-4.5c4.6-0.1,9.1-0.2,13.7-0.2h389.9c4.6,0,9.1,0,13.7-0.1c1.2-0.1,2.4-0.3,3.6-0.6
			c1.2-0.1,2.1-1,2.4-2.1c0.3-2.3,0.5-4.7,0.4-7c0-26.1,0-52.1,0-78.2c0-9.7-0.1-9.4-11.7-9.4h-355c-16.6,0-33.2,0-49.8,0
			c-2.9,0-5.8-0.1-8.7-0.2c-1.5-0.1-3.2-1.4-3.3-2.6c-0.2-3-0.4-6-0.4-9c0-93.3,0-186.6,0-279.8c0-2,0-4,0.1-6
			c0.2-4.5,1.2-5.4,6.4-5.5c4.6-0.1,9.1-0.1,13.7-0.1h426c4.6,0,9.1-0.1,13.7-0.2c2.2-0.1,4-1.4,4.1-3.1c0.1-2.3,0.2-4.7,0.2-7
			c0-26.1,0-52.2,0-78.2c0-2.3-0.1-4.7-0.2-7c-0.1-1.7-1.8-3.2-3.9-3.3c-4.6-0.2-9.1-0.3-13.7-0.3h-575.5c-3.3,0-6.6,0-10,0
			c-1.2,0-2.5,0.2-3.7,0.3c-1.5,0.1-3.2,1.4-3.2,2.6c-0.2,3.7-0.3,7.3-0.3,11C1921.5,1418.1,1921.5,1565.5,1921.5,1713z
			 M1300.9,1763.1v389.2c0,3.4,0,6.7,0,10c0,1.3,0.2,2.7,0.3,4c0.3,1.5,1.5,2.6,3,2.7c2.5,0.1,5,0.3,7.4,0.3c41.9,0,83.9,0,125.8,0
			c2.5,0,5-0.1,7.4-0.3c1.6-0.1,3.2-1.3,3.3-2.5c0.2-4,0.3-8,0.3-12c0-259.8,0-519.6,0-779.4c0-3,0-6,0-9c0.1-9.2,0.1-9.3,11.8-9.3
			c36.6,0,73.1,0,109.6,0h208.1c4.1,0,8.3,0,12.4-0.1c2.7-0.1,4.2-1.5,4.4-3.9c0-0.7,0.1-1.3,0.1-2c0-29.1,0-58.2,0-87.3
			c0-1.3-0.2-2.7-0.3-4c-0.1-1.2-1.8-2.5-3.3-2.5c-4.1-0.1-8.3-0.3-12.4-0.3H974.1c-4.6,0-9.1,0.1-13.7,0.2c-2.1,0-4.1,1.5-4.2,3.1
			c-0.2,2.3-0.3,4.7-0.3,7c0,26.4,0,52.8,0,79.2c0,2.3,0.1,4.7,0.2,7c0.2,1.9,1.8,3.4,3.8,3.4c4.6,0.1,9.1,0.2,13.7,0.2h307.7
			c4.2,0,8.3,0,12.4,0c1.2,0,2.5,0.2,3.7,0.3c1.5,0.2,3.1,1.5,3.1,2.7c0.2,3.7,0.3,7.3,0.3,11
			C1301,1501.6,1301,1632.4,1300.9,1763.1L1300.9,1763.1z"/>
		<path class="st2" d="M189.2,1718c0-145.1,0-290.2,0-435.3c0-3.7,0.1-7.3,0.3-11c0.1-1.7,1.6-3.1,3.8-3.4c15-2.6,30.1-4.7,45.4-6.3
			c17.3-1.9,34.6-3.6,51.9-5.3c9.5-0.9,19-1.6,28.5-2.2c16.6-1,33.1-1.9,49.7-2.6c27-1.2,53.9-1.9,80.9-2
			c28.7-0.1,57.3,0.5,85.9,2.3c39,2.5,77.5,7,115.1,15.9c34.9,8.2,67.8,19.8,97.8,36.6c9.5,5.3,18.8,11,27.8,16.9
			c38.3,25,63.3,57.1,76.2,95.3c7,20.8,10.2,42.6,9.4,64.5c-1.7,51.3-25.3,95.5-68.7,132.9c-25.8,22.2-56.3,39.4-90.3,52.5
			c-8.2,3.2-16.7,5.8-25.1,8.8c-1.9,0.7-3.6,1.5-5.4,2.3c-0.3,0.1-0.6,0.6-0.5,0.8c0.2,0.6,0.4,1.5,0.8,1.7c3.5,1,7,2,10.6,2.8
			c46.4,11.1,88.4,28.7,125.1,54.3c39.5,27.6,67.8,61.2,83.1,101.6c6.5,17.1,10.4,35,11.8,53.1c1.2,15.4,0.9,30.8-1,46.1
			c-5.7,44.2-24.6,84.3-57.2,120.2c-28.2,31.2-64,54.9-106.7,72.2c-27.9,11.1-56.7,19.8-86.1,25.9c-25.3,5.4-50.9,9.5-76.8,12.5
			c-23,2.6-46.1,4.5-69.3,5.9c-42.3,2.6-84.6,2.2-127,2.1c-31.2-0.1-62.3-1.3-93.3-2.8c-23.6-1.2-47.2-2.6-70.7-5.1
			c-7.4-0.8-14.8-1.6-22.2-2.4c-1.5,0-2.9-1.1-3.2-2.6c-0.2-1.3-0.3-2.7-0.4-4c0-3.4,0-6.7,0-10L189.2,1718z M335.1,1906
			c0,53.8,0,107.6,0,161.5c0,3.3,0.2,6.7,0.3,10c0.3,1.5,1.5,2.6,3,2.8c4.9,0.7,9.8,1.6,14.7,1.9c15.7,1.1,31.4,2.5,47.2,2.5
			c12.5,0.1,24.9,0.6,37.4,0.6c34.1,0.3,68-0.3,101.8-4.7c26.3-3.4,52-8.4,76.9-16.3c21.8-6.9,42.1-15.7,60.6-27.4
			c34.6-21.9,56.6-50.3,66.2-84.8c6.9-24.7,7.8-50.6,2.7-75.7c-7.2-36.8-28.4-67.4-63.8-91.5c-18.5-12.6-39.4-22.2-61.7-29.8
			c-30-10.2-61.5-16.2-93.6-19.7c-23.5-2.5-47.1-3.8-70.8-3.8c-35.7-0.1-71.4-0.1-107.1,0c-2.5,0-5,0-7.5,0.1
			c-4.6,0.1-6.1,1.2-6.3,4.6s-0.1,6.7-0.1,10C335,1799.7,335,1852.9,335.1,1906z M335.1,1495.3c0,45.1,0,90.3,0,135.4
			c0,13.6-1.2,12.1,15.7,12.2c36.1,0.1,72.2,0,108.4,0c22.4,0.1,44.8-1.1,67-3.6c25.2-2.8,50.1-8.3,74.1-16.6
			c21.5-7.6,41.2-17.4,58.4-30.2c31.1-23.2,49.2-51.9,54-85.8c2.9-20,1.2-40.5-5-59.7c-10-31.1-31.6-55.6-65.2-73.2
			c-8.8-4.6-18-8.6-27.3-11.9c-20.2-7.3-41.3-12.1-63-15.3c-27-4-54.3-5.6-81.8-6c-22.4-0.3-44.8,0.6-67.2,1.5
			c-18.2,0.6-36.4,2.2-54.4,4.7c-14.6,2.1-13.6,0-13.6,13.1C335,1405,335,1450.1,335.1,1495.3L335.1,1495.3z"/>
		<path class="st2" d="M1921.5,1713c0-147.4,0-294.9,0-442.3c0-3.7,0.2-7.3,0.3-11c0.1-1.2,1.7-2.5,3.2-2.6c1.2-0.1,2.5-0.3,3.7-0.3
			c3.3,0,6.7,0,10,0h575.5c4.6,0,9.1,0.1,13.7,0.3c2.1,0.1,3.8,1.6,3.9,3.3c0.1,2.3,0.2,4.7,0.2,7c0,26.1,0,52.2,0,78.2
			c0,2.3-0.1,4.7-0.2,7c-0.1,1.7-1.9,3-4.1,3.1c-4.6,0.1-9.1,0.2-13.7,0.2h-426c-4.6,0-9.1,0-13.7,0.1c-5.2,0.1-6.2,1-6.4,5.5
			c-0.1,2-0.1,4-0.1,6c0,93.3,0,186.6,0,279.8c0,3,0.2,6,0.4,9c0.1,1.2,1.8,2.5,3.3,2.6c2.9,0.1,5.8,0.2,8.7,0.2
			c16.6,0,33.2,0,49.8,0h355c11.6,0,11.7-0.3,11.7,9.4c0,26.1,0,52.2,0,78.2c0,2.3-0.1,4.7-0.4,7c-0.2,1.1-1.2,2-2.4,2.1
			c-1.2,0.3-2.4,0.5-3.6,0.6c-4.6,0.1-9.1,0.1-13.7,0.1h-389.9c-4.6,0-9.1,0-13.7,0.2c-3.4,0.1-5,1.5-5.1,4.5
			c-0.1,3.3-0.1,6.7-0.1,10c0,128.1,0,256.1,0,384.2c0,3.7-0.2,7.3-0.4,11c-0.1,1.2-1.8,2.6-3.1,2.7c-1.6,0.1-3.3,0.3-4.9,0.3
			c-43.2,0-86.4,0-129.6,0c-1.7,0-3.3-0.2-5-0.3c-1.5-0.1-2.7-1.2-3-2.7c-0.1-1.3-0.2-2.7-0.2-4c0-3,0-6,0-9L1921.5,1713z"/>
		<path class="st2" d="M1300.9,1763.1c0-130.7,0-261.5,0-392.2c0-3.7-0.2-7.3-0.3-11c0-1.2-1.7-2.6-3.1-2.7
			c-1.2-0.1-2.5-0.3-3.7-0.3c-4.2,0-8.3,0-12.4,0H973.6c-4.6,0-9.1-0.1-13.7-0.2c-1.9,0-3.5-1.5-3.8-3.4c-0.1-2.3-0.2-4.7-0.2-7
			c0-26.4,0-52.8,0-79.2c0-2.3,0.1-4.7,0.3-7c0.1-1.6,2.1-3.1,4.2-3.1c4.6-0.1,9.1-0.2,13.7-0.2h804.8c4.2,0,8.3,0.2,12.4,0.3
			c1.6,0,3.2,1.3,3.3,2.5c0.2,1.3,0.3,2.7,0.3,4c0,29.1,0,58.2,0,87.3c0,0.7,0,1.3-0.1,2c-0.1,2.4-1.7,3.8-4.4,3.9
			c-4.1,0.1-8.3,0.1-12.4,0.1h-208c-36.6,0-73.1,0-109.6,0c-11.8,0-11.8,0.1-11.8,9.3c0,3,0,6,0,9c0,259.8,0,519.6,0,779.4
			c0,4-0.2,8-0.3,12c0,1.2-1.7,2.4-3.3,2.5c-2.5,0.1-5,0.3-7.4,0.3c-42,0-83.9,0-125.8,0c-2.5,0-5-0.2-7.4-0.3
			c-1.5-0.1-2.7-1.2-3-2.7c-0.1-1.3-0.2-2.7-0.3-4c0-3.4,0-6.7,0-10L1300.9,1763.1z"/>
		<line class="st6" x1="0.4" y1="2036.8" x2="2627.4" y2="2036.8"/>
	</g>
</g>
</svg>
