<svg id="Layer_1" data-name="Layer 1" xmlns="http://www.w3.org/2000/svg" viewBox="0 0 1920 1080"><defs><style>.cls-1{opacity:0.1;}.cls-2{fill:#14359c;}</style></defs><g id="Layer_2" data-name="Layer 2" class="cls-1"><g id="Layer_1-2" data-name="Layer 1-2"><g id="Layer_2-2" data-name="Layer 2-2"><g id="Layer_1-2-2" data-name="Layer 1-2-2"><g id="Layer_2-2-2" data-name="Layer 2-2-2"><g id="Layer_1-2-2-2" data-name="Layer 1-2-2-2"><path class="cls-2" d="M1896.71,327.58l-292.55,724H1413.29L1288.23,677c-8.19-21.17-12.9-38.69-20.87-61-9-42-55.9-77.78-82-106.61-14.88-16.51-31.7-35.22-32.4-44.42l11-100.5,29,27.43L1285,478l20.87-22L1177.16,335.06a40.86,40.86,0,0,1-4.4-4.8c-16.2-18.4-24.21-47.63-30.28-69.64-10.88-40-15-82-18.14-123.25l207.33,190.21,5.95,5.5c30.81,28.39,47.93,67.57,58.5,107.63,12.37,47.32,25.13,94.33,38.69,141.43,3.35,11.67,6.65,23.34,9.77,35.22l19.55,68.1,18.53,64.44,14.84,51.77,8.8,29.85,1.1,3.91h2l196.55-507.85Z"/></g></g></g></g></g></g></svg>