<svg xmlns="http://www.w3.org/2000/svg" viewBox="0 0 968 207.7"><g id="Layer_2" data-name="Layer 2"><g id="Layer_1-2" data-name="Layer 1"><g id="Layer_2-2" data-name="Layer 2"><g id="Layer_1-2-2" data-name="Layer 1-2"><path d="M235,43.21H201.88l-66,164.48H181l8.66-23.78h57.12l8,23.79h45.56ZM201.21,150.57l16.9-56.24.66.23,16.89,56Z"/><path d="M349.24,170.79V43.21h-42V207.69h90.68v-36.9Z"/><path d="M486.15,125.23l52-78.29,2.48-3.73h-44l-46.45,74h-.45v-74h-42V207.69h42V136.56h.45L495,207.69h49.11Z"/><path d="M631.06,43.21l-24.67,66-24.45-66H536.38l1.75,3.7,47.36,101V207.7h42V147.91l48.69-104.7Z"/><path d="M764,151.68c25.34-4.45,40.9-25.78,40.9-51.79,0-23.34-12.45-42.67-30.23-50.67-8.67-3.78-21.78-6-38.9-6H682V207.69h40.22V154.57h.45l38,53.12h48Zm-26.26-25.77H722.18V80.11h16c15.78,0,26.45,8,26.45,22.23C764.64,118.12,754.41,125.91,737.74,125.91Z"/><path d="M816,43.21V207.69h42V43.21Z"/><path d="M968,80.11V43.21H876.66V207.69H968v-36.9H916.88V142.56h49.57V105.67H916.88V80.11Z"/><path d="M175.46,43.21,109,207.69H65.64L37.23,122.58c-1.86-4.81-2.93-8.79-4.74-13.86-2.05-9.55-12.7-17.67-18.62-24.22-3.38-3.75-7.2-8-7.36-10.09L9,51.58l6.6,6.23L36.5,77.38l4.74-5L12,44.91a9.29,9.29,0,0,1-1-1.09C7.32,39.64,5.5,33,4.12,28,1.65,18.91.71,9.38,0,0L47.1,43.21l1.35,1.25c7,6.45,10.89,15.35,13.29,24.45,2.81,10.75,5.71,21.43,8.79,32.13.76,2.65,1.51,5.3,2.22,8l4.44,15.47,4.21,14.64,3.37,11.76,2,6.78.25.89h.45L132.12,43.21Z"/></g></g></g></g></svg>