<svg xmlns="http://www.w3.org/2000/svg" viewBox="0 0 2668.79 2974.74"><defs><style>.cls-1{fill:#fff;}.cls-2{fill:#14359c;}.cls-3{fill:none;}</style></defs><g id="Layer_2" data-name="Layer 2"><g id="Layer_1-2" data-name="Layer 1"><g id="Layer_2-2" data-name="Layer 2"><g id="Layer_1-2-2" data-name="Layer 1-2"><g id="Layer_2-2-2" data-name="Layer 2-2"><g id="Layer_1-2-2-2" data-name="Layer 1-2-2"><path d="M2667.46,1548.77a34.4,34.4,0,0,1-.29-5.46c.1-13.39-1.1-26.72-2.31-40-1.3-14.22-3-28.4-4.61-42.58q-1.82-15.39-4-30.72c-2-13.52-3.91-27.06-6.26-40.52q-6.09-35-14-69.66c-21.88-95.45-54-187.25-97.55-275-64.61-130.14-150.5-244.43-256.17-344q-33.87-31.91-69.88-61.32c-2.09-1.71-4.59-3-6-5.94.45-1.19.87-2.64,1.52-4,15-30.67,26-62.82,35.63-95.5,7.86-26.81,15.25-53.75,21.27-81.05,4.58-20.77,8.73-41.61,12.11-62.61,2.26-14.09,4.54-28.19,6.54-42.32,1.67-11.73,3-23.5,4.37-35.27q2.46-21.27,4.7-42.57c.78-7.25,1.45-14.52,2.06-21.78.87-10.3,1.62-20.6,2.45-30.9.91-11.2,1.89-22.4,2.78-33.61q1.08-13.64,2-27.27c.85-12.12,1.58-24.26,2.47-36.38.85-11.51,1.83-23,2.74-34.53.74-9.39,1.49-18.78,2.17-28.17.86-11.82,1.65-23.65,2.5-35.47.2-2.72.6-5.43.78-8.16.12-1.8,0-3.62,0-5.43-.57-.1-1.32-.47-1.64-.23a54.09,54.09,0,0,0-5,3.94q-21.21,19.4-42.33,38.82L1911,374.74l-30.89,28.37c-2,1.83-4.09,3.56-5.85,5.08-3.09.47-5.15-1.07-7.31-2q-36.36-15.78-73.6-29.41a1321.32,1321.32,0,0,0-174-50.4c-24.35-5.27-48.81-9.94-73.4-13.83-20.1-3.19-40.24-6.11-60.51-8.08-5.74-.56-11.47-1.29-17.21-1.82a5.83,5.83,0,0,1-5.36-4.18c-.85-2.27-1.9-4.47-2.84-6.71L1342.22,9.16c-1.16-2.79-2.43-5.54-3.76-8.26-.2-.41-1-.51-1.86-.9h0c-1.24,2.74-2.54,5.44-3.7,8.2q-26.82,64.34-53.6,128.69-32.43,77.81-64.88,155.58c-4.15,9.95-2.16,9-13.64,10.14-23.89,2.32-47.67,5.41-71.4,9A1318.9,1318.9,0,0,0,807.11,404c-10.2,4.37-8.07,4.8-16.39-2.84Q649.3,271.43,508,141.64L369,14c-2-1.84-4.14-3.56-6.19-5.35-.56-.49-1.16-.59-1.65,0a2.6,2.6,0,0,0-.73,1.48c.1,3.34.23,6.68.47,10q1.68,22.28,3.4,44.53c.88,11.21,1.85,22.41,2.74,33.62q1,12.72,1.91,25.45c.84,11.82,1.59,23.65,2.46,35.47.91,12.42,1.91,24.84,2.89,37.26q1,12.25,2,24.53c.8,10,1.56,20,2.45,30,.84,9.38,1.79,18.75,2.75,28.12.74,7.25,1.62,14.49,2.33,21.75,2.08,21.17,4.89,42.25,8,63.28,5.91,39.67,13.26,79.07,23.3,117.93,8.06,31.17,16.69,62.18,27.31,92.6A497,497,0,0,0,467,633.52a27.57,27.57,0,0,1,1.91,4.13,3,3,0,0,1-.43,2.51A64.69,64.69,0,0,1,463,645q-43.38,35.58-83.71,74.56C300,796.25,231.51,881.56,175,976.35A1206.79,1206.79,0,0,0,61.34,1229.3a1263.37,1263.37,0,0,0-36.21,142.06q-6.9,35.33-11.77,71C11,1460.12,8.69,1477.91,7,1495.74Q4.18,1524.32,2.46,1553c-.55,9.08-1.5,27.43-2,51C0,1627.82-1,1676.82,3.23,1734.47c1.63,21.71,4,43.47,4.6,49.9q1.92,18.59,4.38,37.1,2.61,19.41,5.86,38.73,5.25,31,11.85,61.72a1310.77,1310.77,0,0,0,48.66,169.74,1326.26,1326.26,0,0,0,230.51,401.85q177.81,213.18,425.41,339A1322.19,1322.19,0,0,0,1012.16,2936q46.86,11.74,94.44,19.93c18,3.09,36,6,54,8.11,13,1.53,25.91,3.27,38.9,4.67,9.66,1,19.36,1.76,29,2.47,10.9.81,21.82,1.46,32.73,2.18,1.81.12,3.66.16,5.18,1.38h136.77a20.79,20.79,0,0,1,3.43-1.11c2.1-.29,4.24-.38,6.36-.46,19.14-.71,38.21-2.46,57.24-4.4q44-4.47,87.56-11.84c517.16-88.24,935.15-470.37,1069.29-977.56q13.59-51.57,23-104c3.91-21.83,7.29-43.74,10-65.76q3-24.88,5.43-49.82c1-10,1.3-20,1.64-30,.12-3.3-.23-6.73,1.66-9.75V1554A44.51,44.51,0,0,1,2667.46,1548.77Zm-1458.1-1053c.91-2.87,1.89-5.74,3-8.53q24.69-59.26,49.44-118.52l70.44-169c1.27-3.06,2.8-6,4.31-9,.1-.2,1.38-.2,1.52.06a45.49,45.49,0,0,1,3,5.59q9.3,22.26,18.56,44.57,51.51,123.58,103,247.17a53.65,53.65,0,0,1,2.55,6.81,28.82,28.82,0,0,1-1.23,18.75c-2.54,6.17-5,12.37-7.56,18.55Q1399,672.55,1341.49,812.89a62.85,62.85,0,0,1-2.52,5.85c-.36.68-1.36,1-2.07,1.53-2.39-3.08-3.35-6.64-4.73-10q-25.92-63.19-51.75-126.44-33.83-82.61-67.66-165.2c-1.26-3.08-2.36-6.24-3.38-9.42a22.31,22.31,0,0,1,0-13.48Zm69.11,2404.48a2.05,2.05,0,0,1-1.46.8,29.33,29.33,0,0,1-3.63-.08c-3.64-.22-7.28-.48-10.91-.72q-22.77-.95-45.42-3.38c-13.88-1.47-27.8-2.69-41.65-4.47-14.75-1.89-29.43-4.3-44.14-6.51-21-3.15-41.87-7.25-62.63-11.76A1230.09,1230.09,0,0,1,913,2829.65c-13.42-4.83-26.72-10-40.06-15a25.66,25.66,0,0,1-4.91-2.33,2.64,2.64,0,0,1-.81-2.36,64.3,64.3,0,0,1,2.68-6.74c10.21-23.37,20.62-46.65,30.63-70.1q29.28-68.7,54.68-138.95c1.14-3.13,2.5-6.18,3.86-9.21.15-.34,1-.52,1.56-.49a3.33,3.33,0,0,1,1.66.64c1.5,1,3,2.12,4.42,3.22,37.47,28.52,74.32,57.8,109.86,88.71,53.51,46.53,103.43,96.58,148.61,151.28q25.83,31.28,49.5,64.22c1.41,2,2.74,4,4,6.07a1.88,1.88,0,0,1-.15,1.6Zm512.14-82.65a1254.69,1254.69,0,0,1-143,45.83q-45,11.52-90.75,19.63c-17.63,3.14-35.31,6-53.1,8.16-12.66,1.51-25.3,3.24-38,4.64-9.36,1-18.75,1.76-28.13,2.45-13.93,1-27.88,1.88-41.82,2.8-2.71.17-5.43.58-8.4-.09a8.1,8.1,0,0,1,0-2.6,57.94,57.94,0,0,1,3.22-5.49c65.92-104.67,146-197,241.12-276.15q25.89-21.59,52.73-42c1.89-1.44,3.58-3.27,6-3.69h0c1.74,1.18,2.2,3,2.86,4.66,5.44,13.85,10.8,27.73,16.39,41.51q38.55,95,85,186.41c.28.54.52,1.1.79,1.64,5,9.48,5.21,8.32-4.91,12.25Zm807.1-1157.2c-.23,22.79-1.36,45.54-3.07,68.27-.82,10.9-1.49,21.82-2.57,32.7-1.33,13.29-2.93,26.56-4.58,39.81-1.32,10.55-2.76,21.08-4.38,31.58-2,13.22-3.83,23.06-5.2,30.53-1.72,9.46-7.27,39.25-16.88,79.73,0,0-1,4.3-1.94,8.08a1258.47,1258.47,0,0,1-158.84,366.34c-1.63,2.56-3.38,5-5.11,7.54a2.44,2.44,0,0,1-3.27.33c-3.17-2.69-6.52-5.33-6.88-6-3.83-6.62-58.07-48-116.45-101.16l-17.15-.41q1,40,2,80c24.39,19.86,43,36.88,55.9,49.1l36.65,35.54h0c1.79,1.57,4,2.8,5,5.16h0c.26,1.76-1,2.85-1.83,4-6.79,9-13.54,18-20.48,26.81a1266.76,1266.76,0,0,1-156,165.75q-2.73,2.43-5.52,4.76a2.67,2.67,0,0,1-3.77,0,3.11,3.11,0,0,1-.23-.28c-4.9-5.37-7.62-7.8-8.52-9.5-2.88-5.46-36.47-50-87.13-116.3h-83c18,31.31,35.23,57.82,50,79.23,33.24,48.12,65.06,85.15,67.7,88.17,1.21,1.37,2.41,2.74,3.58,4.14,2.15,2.57,2,3.61-.9,5.92-1.42,1.14-2.88,2.23-4.33,3.34q-39.12,29.93-80.47,56.7a1258.09,1258.09,0,0,1-143.08,80c-10.3,4.9-9.09,5.07-14-4.62-6-11.93-21.2-34.77-29.89-50.39-11.54-20.74-56.59-120.46-103.63-262.52h-69c2.43,21.88,3.59,31.6,3.82,32.32v.16a4.41,4.41,0,0,1,0,2.28,4.48,4.48,0,0,1-1.75,2.33c-2,1.44-3.88,2.93-5.83,4.38-30.25,22.49-59.76,45.88-88.34,70.47a1218.63,1218.63,0,0,0-218.51,247.13c-4.73,7.07-9.37,14.2-14.07,21.29-.81,1.23-1.46,2.63-3,3.23h0c-1.71-.27-2.51-1.64-3.4-2.83-3.45-4.63-6.83-9.31-10.29-13.94-48.5-65-103-124.5-162.71-179.29-35.63-32.68-72.71-63.63-110.83-93.35-17.73-13.82-35.67-27.38-53.51-41-1.45-1.11-2.94-2.16-4.38-3.28s-2.24-1.89-2.55-2.83a5.68,5.68,0,0,1,.39-3.93l.14-.29c.6-1.18,16-87,50.73-282.8l-68-3c-8,45.41-34.41,191.1-76.51,334.73-53.22,181.58-82.94,206-88.66,218.61-4.68,10.32-3.41,10-13.48,5.18a1260.28,1260.28,0,0,1-215.77-132c-1.7-1.29-3.37-2.6-5-4a2.75,2.75,0,0,1-.38-3.83l.16-.17c.77-.93,1.56-1.86,2.37-2.77,38.44-43,71.57-89.75,100.91-139.29,34.81-58.78,55.93-105.94,73-145.75,21.93-51.25,37.53-96.17,48.41-130.79h-68c-25.42,60.49-49.15,110.34-67.72,147.47-41.62,83.23-67.53,123.08-78.2,138.81a759.38,759.38,0,0,1-61.39,79.2c-1.42,1.59-2.83,3.18-4.27,4.74-3.82,4.15-4,4.17-8,.78-1.39-1.18-2.75-2.4-4.12-3.6q-32.52-28.62-63-59.43a1271.33,1271.33,0,0,1-110.93-128.07l-6-8a4.27,4.27,0,0,1-1.15-2.79,4,4,0,0,1,1.82-2.61c2.43-1.78,71.48-69.13,170.94-166.45h-83c-89.73,71.25-124.3,99.76-126.2,102.87-.22.35-2.57,2.17-4.91,4.06a2,2,0,0,1-2.49-.2c-1.42-2-2.88-3.9-4.19-5.93a1256.67,1256.67,0,0,1-155.94-350.9c-2-7.33-3.57-13.41-4-15-4.57-17.67-11.71-46.86-18.56-83.76-5.11-27.49-7.94-48.21-8.8-53.93-1.8-12-3.14-24.1-4.41-36.17-1.71-16.31-3.32-32.64-4.68-49-1-11.5-1.6-23-2-34.57-1.55-39.79-1.41-79.58,0-119.37.49-13.45,1.27-24.24,1.72-30.94,2.73-40.47,6.7-72.25,9.12-90,2.34-17.11,4.52-30.56,5.75-37.84,3.59-21.26,7.66-42.44,12.34-63.5,21.35-96.08,57.24-185.21,57.24-185.21S231.75,993.3,374.28,829.73c33-37.87,80.59-81.11,84.32-84.51,1.57-1.43,3.17-2.83,4.84-4.13a1.9,1.9,0,0,1,1.67-.16,2.09,2.09,0,0,1,.73,1.46c.11.9,0,1.82,0,1-.82,8-1.44,14.39-2.11,20.73q-2.7,25.38-5.46,50.75c-2.14,19.63-4.4,39.25-6.51,58.88s-4.08,39.29-6.15,58.92c-.76,7.13-1.53,14.26-2.44,21.37H499c7.69,0,15.5-.21,23.31-.17.11-1,.24-2.1.38-3.38,1.3-11.8,2.5-23.61,3.79-35.41,1.52-13.9,3.14-27.78,4.64-41.67S534,845.6,535.5,831.7c.9-8.45,1.9-16.9,2.84-25.36.89-8,1.53-14.59,1.85-17.47q3.18-77.8,6.37-155.62c-13.35-48.94-25-88.37-33-114.89,0,0-30.66-101.23-47.71-174.81a399.28,399.28,0,0,1-7.6-42.75c-2.7-22.18-.48-19.53-2.85-38.94,0,0-3.67-30.09-2.74-73a5.13,5.13,0,0,1,.6-1.61c.26-.61,1.4-.41,2.38.46,1.58,1.41,3.16,2.83,4.74,4.28l39,35.74L831.23,532.36,961.46,651.87a460.93,460.93,0,0,1,89.85,112.46,446.55,446.55,0,0,1,49.78,132.11c.21,1,3.14,17.14,7,38.55,1.41,7.9,2.56,14.4,3.33,18.75l66.28,1.48c-1.09-6.19-2.32-13.2-3.63-20.8-3.3-19.14-5.29-31.15-5.85-34.4-4.7-27.49-17.8-77.78-44.38-131.71a529,529,0,0,0-118.64-158q-69.66-63.64-139-127.59c-2-1.85-4.05-3.68-6-5.61a10.88,10.88,0,0,1-1.36-2.3c2.25-2.43,5.33-3,8.08-4.13q40.64-16.2,82.29-29.58A1247.33,1247.33,0,0,1,1089.4,405c23.84-4.69,47.79-8.81,71.91-11.85,4.8-.61,9.53-1.89,14.44-1.41a2.11,2.11,0,0,1,1.36,2,17.39,17.39,0,0,1-.48,1.75c-.79,2-1.62,3.94-2.44,5.9q-15,36.17-30.17,72.32a104,104,0,0,0-8.6,43.46,99.51,99.51,0,0,0,6.73,33.79c3.2,8.21,6.55,16.35,9.89,24.5q90.27,220.52,180.58,441c1,2.57,2.21,5.11,3.41,7.81l2.06.58a2.76,2.76,0,0,0,.92-.91c1-1.89,1.68-3.9,2.49-5.87L1477.91,685l52.14-127.32a129.53,129.53,0,0,0,6.26-18.07,100.91,100.91,0,0,0-4.84-64.29c-7.66-18.53-15.43-37-23.16-55.5-3.16-7.57-6.35-15.12-9.45-22.71a15.59,15.59,0,0,1-.69-3.51,1,1,0,0,1,.7-1.23h.3a12.06,12.06,0,0,1,2.68-.15c8.43,1.15,16.88,2.18,25.26,3.58,15.87,2.66,31.73,5.4,47.55,8.35A1201.69,1201.69,0,0,1,1715,439.55q45.63,14.35,90,32.28c2,.79,4,1.52,5.88,2.45.74.37,1.25,1.23,1.83,1.83-1,2.54-3.1,3.86-4.86,5.47Q1773,513.67,1738,545.71l-72.53,66.58a526.34,526.34,0,0,0-137.19,203.9,519.73,519.73,0,0,0-26,95.7c-2.22,12.87-4,25.82-5.94,38.73-.54,3.53-1.32,8.68-2.51,16.47-2.28,14.93-4,25.68-4.14,26.76-8.09,52.17-5.11,128.64-5.11,128.64q.48,12.12,1.27,24.66,1.65,26.2,4.48,50.59h92a282.78,282.78,0,0,1-26-68c-10-41.57-8.08-76.21-7-95,1.25-21.8,4.36-43.32,6.78-60,2-13.82,4.18-26.75,5.08-32,2.56-14.92,4.82-26.44,7.31-39.87,8.55-46.07,24.43-89.57,46.73-130.75A453.32,453.32,0,0,1,1708,653.33l167.26-153.52,260-238.59,74.58-68.42c2-1.84,4.11-3.6,6.24-5.3.33-.27,1.09-.07,1.63,0a.85.85,0,0,1,.44.66c-.11,4.24-.08,8.49-.41,12.72q-1.53,19.53-3.29,39.06c-.84,9.38-1.84,18.74-2.79,28.11-.68,6.65-1.46,13.29-2.09,20-2,21.48-4.9,42.86-8,64.2-6.3,43.06-20.65,102.3-31.44,146.9-7.18,29.66-18.42,76.44-32.33,136.08l-7.48,147.64c1.47,13.9,2.83,27.81,4.32,41.71s3.08,27.78,4.62,41.67c.73,6.64,1.47,13.29,2.16,19.93,1.44,13.91,2.83,27.81,4.3,41.71,3.16,30,3.53,29.74,4.19,38,.61,7.52,2.59,36.45-3.06,66.33-5.57,29.5-18.55,52.83-32.29,76.94a483.68,483.68,0,0,1-65,88.55h122c14.09-25.75,32.19-63.4,42.74-104.7,3.29-12.84,5.65-25.32,5.88-26.56,4.35-23.5,6-45.12,7.41-70.32,1.16-21,2.13-38.59-.06-60.82-.31-3.18-.54-4.94-4.64-42.58-.73-6.64-1.48-13.28-2.16-19.93-2.09-19.94-4.08-39.89-6.2-59.83-2.11-19.63-4.34-39.25-6.49-58.88q-1-9.06-1.89-18.12a35.82,35.82,0,0,1,0-3.59h0c.82-.07,1.59-.38,2-.12a67.19,67.19,0,0,1,5.68,4.5q24.69,22.23,48.22,45.8A1159.64,1159.64,0,0,1,2366.1,902c29.16,38.5,50.07,71.41,62.08,91.07,0,0,92.3,151.2,135.05,332.46,9.17,38.87,15.75,78.6,15.75,78.6.78,4.67,3.37,20.5,6.24,42.36a1619.42,1619.42,0,0,1,12.59,182c.13,16.26-.07,28.63-.1,31.88Z"/><path d="M540.48,787.37a10.1,10.1,0,0,0-.22,1.56c-.09,2.27-.19,4.54-.28,6.81C540.49,788.83,540.54,787.38,540.48,787.37Z"/><path d="M1187.51,1274.15l-.43.11.22-.33C1187.37,1274,1187.43,1274.08,1187.51,1274.15Z"/><path class="cls-1" d="M1489,1276.51h-.43s.56.27.57.29Z"/><path class="cls-1" d="M1180,1286.5l-.43.1s.23-.33.24-.33S1180,1286.5,1180,1286.5Z"/><path d="M2148.39,589a169.31,169.31,0,0,1-25.07,30.17L1812.61,908.46,1862.43,962l278-258.85A1044.91,1044.91,0,0,0,2148.39,589Z"/><path d="M831.39,953.74l42-45.15L564.58,619.31c-20.8-19.44-36.59-46.38-49.11-75.37,1.87,51.77,14.29,103.67,25.87,153.8l273,256Z"/><path class="cls-2" d="M360.68,1006.58h21.75l69.71,101.9c5.77,8.43,13.1,22.64,13.1,22.64h.44s-1.55-14-1.55-22.64v-101.9h22v156.73H464.57l-69.93-101.68c-5.77-8.65-13.09-22.86-13.09-22.86h-.45s1.56,14,1.56,22.86v101.68h-22Z"/><path class="cls-2" d="M594,1093.16h4.88v-2c0-18.43-10.43-24.64-24.64-24.64-17.32,0-31.3,10.88-31.3,10.88L534,1061.63s16.2-13.32,42-13.32c28.42,0,44.4,15.54,44.4,44v71h-20v-10.66a87.71,87.71,0,0,1,.45-8.88h-.45s-9.1,22.2-36,22.2c-19.31,0-38.18-11.76-38.18-34.18C526.29,1094.71,575.13,1093.16,594,1093.16Zm-24.87,55.5c18.21,0,30-19.09,30-35.74v-3.56h-5.55c-16.2,0-45.51,1.11-45.51,21.32,0,9.1,7.11,18,21.09,18Z"/><path class="cls-2" d="M665,1134.23s12.65,13.1,32.19,13.1c9.32,0,18.64-4.89,18.64-14,0-20.65-57.72-16.43-57.72-53.06,0-20.42,18.21-32,40.63-32,24.64,0,36.19,12.44,36.19,12.44l-8.66,16.2s-10-10-27.75-10c-9.33,0-18.43,4-18.43,13.77,0,20.2,57.72,15.76,57.72,52.61,0,18.65-16,32.63-40.62,32.63-27.53,0-42.63-16.42-42.63-16.42Z"/><path class="cls-2" d="M817.77,1048.31c26,0,34.63,17.76,34.63,17.76h.45a63.31,63.31,0,0,1-.45-7.54v-51.95H874v156.73H853.51v-10.66c0-4.44.23-7.54.23-7.54h-.45s-9.1,20.86-36.85,20.86c-30.41,0-49.51-24-49.51-58.83C767,1071.4,788,1048.31,817.77,1048.31Zm2.89,99c16.65,0,32.41-11.77,32.41-40.41,0-20-10.43-40-31.75-40-17.76,0-32.41,14.65-32.41,40.18,0,24.48,13.06,40.25,31.75,40.25Z"/><path class="cls-2" d="M977.39,1093.16h4.88v-2c0-18.43-10.43-24.64-24.64-24.64-17.31,0-31.3,10.88-31.3,10.88l-8.88-15.77s16.21-13.32,42-13.32c28.41,0,44.4,15.54,44.4,44v71h-20v-10.66a87.71,87.71,0,0,1,.44-8.88h-.44s-9.1,22.2-36,22.2c-19.31,0-38.18-11.76-38.18-34.18C909.68,1094.71,958.52,1093.16,977.39,1093.16Zm-24.86,55.5c18.2,0,30-19.09,30-35.74v-3.56H977c-16.21,0-45.51,1.11-45.51,21.32C931.44,1139.78,938.54,1148.66,952.53,1148.66Z"/><path class="cls-2" d="M1090.61,1048.31c26,0,35.52,18.87,35.52,18.87h.44s-.22-3.33-.22-7.77V1051h20.43v156.73h-21.54v-51.28q0-4.89.45-9.77h-.45s-9.32,19.31-36,19.31c-30.42,0-49.51-24-49.51-58.83C1039.77,1071.4,1060.86,1048.31,1090.61,1048.31Zm2.89,99c16.65,0,32.41-11.77,32.41-40.41,0-20-10.44-40-31.75-40-17.76,0-32.41,14.65-32.41,40.18,0,24.48,13.1,40.25,31.75,40.25Z"/><path class="cls-2" d="M1148.54,2253H1164v36.73a67.74,67.74,0,0,1-.32,6.83h.32s6.84-13.67,25.76-13.67c21.62,0,35.3,17.17,35.3,42.13,0,25.6-15.43,42.14-36.57,42.14a28.94,28.94,0,0,1-25.28-13.84h-.32a52.32,52.32,0,0,1,.32,6v5.88h-14.63Zm37.68,101c12.72,0,23.21-10.49,23.21-28.78,0-17.49-9.38-28.78-22.73-28.78-12.09,0-23.22,8.43-23.22,28.94C1163.48,2339.69,1171,2354,1186.22,2354Z"/><path class="cls-2" d="M1240,2382s4.45,3.34,9.38,3.34c6.2,0,11.44-4.45,14.47-11.76l4-9.22-33.71-79.5h17.33l20.2,52.63c1.59,4.13,3,9.69,3,9.69h.32s1.27-5.4,2.7-9.54l19.55-52.78h16.7l-37.68,94.92c-4.93,12.4-14.79,18.92-26.08,18.92a28.2,28.2,0,0,1-15.58-4.93Z"/><path class="cls-2" d="M1342.53,2208.56h23.75l38.85,110.78c2.89,8.43,6,21.53,6,21.53h.44s3.11-13.1,6-21.53l39.3-110.78h23.31l-57.72,156.73h-22Z"/><path class="cls-2" d="M1559.2,2295.14h4.89v-2c0-18.43-10.43-24.64-24.64-24.64-17.32,0-31.3,10.88-31.3,10.88l-8.88-15.77s16.2-13.32,42-13.32c28.42,0,44.4,15.54,44.4,44v71h-20v-10.66a87.71,87.71,0,0,1,.45-8.88h-.45s-9.1,22.2-36,22.2c-19.32,0-38.18-11.76-38.18-34.18C1491.5,2296.69,1540.34,2295.14,1559.2,2295.14Zm-24.86,55.5c18.2,0,30-19.09,30-35.74v-3.56h-5.55c-16.2,0-45.51,1.11-45.51,21.32C1513.25,2341.76,1520.36,2350.64,1534.34,2350.64Z"/><path class="cls-2" d="M1627.58,2208.56h21.53v122.32c0,13.54,5.33,16,12,16a33.94,33.94,0,0,0,3.78-.22v19.09a60.32,60.32,0,0,1-7.11.45c-12.21,0-30.19-3.33-30.19-31.53Z"/><path class="cls-2" d="M1698.84,2208.56h21.54v85.69h15.76l30.64-41.29h24.42l-37.3,49.5v.45l41.51,62.38h-25.08l-33.75-52.84h-16.2v52.84h-21.54Z"/><path class="cls-2" d="M1818.5,2388.6s6.21,4.66,13.1,4.66c8.65,0,16-6.21,20.2-16.43l5.55-12.87-47.07-111h24.2l28.2,73.48c2.22,5.77,4.21,13.54,4.21,13.54h.45s1.77-7.55,3.77-13.32l27.31-73.7h23.31l-52.62,132.53c-6.88,17.32-20.64,26.42-36.4,26.42A39.31,39.31,0,0,1,1811,2405Z"/><path class="cls-2" d="M1951,2253h20.87v19.53a79.26,79.26,0,0,1-.45,8.44h.45c5.11-16.43,18.2-29.3,35.52-29.3a38.1,38.1,0,0,1,5.55.44v21.31a30.91,30.91,0,0,0-6.22-.66c-13.76,0-26.42,9.76-31.52,26.41a68.39,68.39,0,0,0-2.66,20.21v45.95H1951Z"/><path class="cls-2" d="M2045.16,2208.56h21.75v22h-21.75Zm.22,44.4h21.53v112.33h-21.53Z"/><path class="cls-2" d="M2160.15,2250.29c31.75,0,48.62,23.54,48.62,52.62,0,2.88-.66,9.32-.66,9.32h-81.92c1.11,24.64,18.65,37.08,38.63,37.08,19.31,0,33.3-13.1,33.3-13.1L2207,2352s-16.65,16-43.52,16c-35.29,0-59.49-25.53-59.49-58.83C2104,2273.38,2128.19,2250.29,2160.15,2250.29Zm26.64,45.74c-.66-19.32-12.65-28.64-27.08-28.64-16.43,0-29.75,10.21-32.86,28.64Z"/><line class="cls-3" x1="0.39" y1="2036.74" x2="2627.39" y2="2036.74"/><path class="cls-2" d="M1847.31,2148.54c-.73-5.33-1.09-780.18-.44-878.11,0-1.45.14-2.91.22-4.5,3.71-1.34,7.46-1.76,11.13-2.46,16.79-3.21,33.7-5.69,50.67-7.65,14.69-1.7,29.43-3,44.16-4.35,19-1.79,38-2.67,57.09-3.46,10.68-.44,21.37-.45,32-.77,15.29-.46,30.57,0,45.85.38,14.64.35,29.22,1.37,43.8,2.72a474.72,474.72,0,0,1,50.22,7.22c30.28,6.09,59.41,15.47,86.63,30.33a266.84,266.84,0,0,1,50.47,36c25.24,22.63,42.19,50.56,51.71,83a220.67,220.67,0,0,1,8.26,49,212.08,212.08,0,0,1-.47,34,189.27,189.27,0,0,1-16.35,60.62c-13.32,29.07-32.72,53.42-57.22,73.8-21.55,17.93-45.65,31.5-71.72,41.66a32.66,32.66,0,0,0-4.52,1.93c-.53.3-.68,1.27-1,2,1.7,1.37,3.53,1.53,5.22,2a271,271,0,0,1,81.16,37.2c27.13,18.45,49.83,41.23,67,69.29a211.55,211.55,0,0,1,28.37,76.71,262.75,262.75,0,0,1,2,66.82,237,237,0,0,1-21,79.14,239.9,239.9,0,0,1-57.57,78c-16.35,14.72-34.91,26.23-54.63,35.9-23.86,11.7-48.89,20.06-74.64,26.39a545.62,545.62,0,0,1-57.13,10.69c-13.84,1.87-27.74,3.3-41.67,4.37-19.68,1.51-39.37,2.56-59.11,2.74-24.49.22-49,.36-73.47-.75-17.08-.77-34.17-1.34-51.23-2.4-13.94-.87-27.85-2.23-41.76-3.55-9.49-.9-18.94-2.1-28.41-3.2C1849.71,2149.12,1848.46,2148.77,1847.31,2148.54Zm115.4-85.28a40.49,40.49,0,0,0,4.19,1c5.87.74,11.74,1.6,17.63,2.08,14.91,1.22,29.85,2.09,44.82,2.17,5.92,0,11.84.09,17.76.2,24.53.48,49-.47,73.29-4a312.28,312.28,0,0,0,46.17-10.08c20.24-6.15,39.44-14.54,57-26.41,23.75-16,41.85-36.82,53.3-63.2a164.76,164.76,0,0,0,13-55.42c1.09-16.93.58-33.84-2.7-50.58a149.51,149.51,0,0,0-19.52-50.78c-12-19.34-28-34.77-46.93-47.16s-39.45-20.88-61.07-27c-31.21-8.84-63.15-12.55-95.49-12.79-30.75-.23-61.51,0-92.26,0h-6.41a16.5,16.5,0,0,0-2.76.57Zm.15-429.93h102a336.81,336.81,0,0,0,45.23-2.81,240.54,240.54,0,0,0,47.88-11.2c20.48-7.17,39.46-17.13,56-31.3,30.24-25.85,46.13-58.78,48.21-98.41a166.62,166.62,0,0,0-2.74-39.25c-6.63-35.47-24.78-63.21-55.38-82.63-13.68-8.69-28.5-14.88-44-19.49-26.64-7.91-54-11.09-81.71-11.76q-27.6-.66-55.19.76a448.56,448.56,0,0,0-51.46,5.26c-3,.51-6.2.57-9.21,2.34v285.44c0,.82.19,1.61.33,3Z"/><path class="cls-2" d="M202.84,1254.7H325.43a13.16,13.16,0,0,1,2.07.35c.53,1.58,1.07,3.11,1.56,4.66q42.82,135.32,85.63,270.62Q452,1648.26,489.2,1766.22c18.22,58,35.59,116.23,51.3,175,7.64,28.57,14.94,57.22,21.5,86a31.39,31.39,0,0,0,1,3.81,2.27,2.27,0,0,0,1.32,1.26c.92.22,1.52-.46,1.8-1.3s.45-1.58.65-2.37c17.52-71,38.91-140.9,61.48-210.44,18.1-55.78,37.1-111.26,56.09-166.73Q739,1492,793.54,1332.57q12.45-36.36,24.88-72.73c.58-1.69,1.26-3.34,1.83-4.84,5.78-.53,119.4-.42,123.08.08a2,2,0,0,1,.16.47,2.41,2.41,0,0,1,0,1Q783.71,1703.39,624,2150.24a14.46,14.46,0,0,1-.8,1.63c-4.71.64-123.92.6-128.08-.08q-146.13-447.36-292.2-895A9.12,9.12,0,0,1,202.84,1254.7Z"/></g></g></g><path class="cls-2" d="M1052.05,2151.84c-.73-5.33-1.09-780.18-.44-878.11,0-1.45.14-2.91.22-4.5,3.71-1.34,7.46-1.76,11.13-2.46,16.79-3.21,33.7-5.69,50.67-7.65,14.69-1.7,29.43-3,44.16-4.35,19-1.79,38-2.67,57.09-3.46,10.68-.44,21.37-.45,32-.77,15.29-.46,30.57,0,45.85.38,14.64.35,29.22,1.37,43.8,2.72a474.72,474.72,0,0,1,50.22,7.22c30.28,6.09,59.41,15.47,86.63,30.33a266.84,266.84,0,0,1,50.47,36c25.24,22.63,42.19,50.56,51.71,83a220.58,220.58,0,0,1,8.26,49,213.28,213.28,0,0,1-.47,34,189.34,189.34,0,0,1-16.35,60.62c-13.32,29.07-32.72,53.42-57.22,73.8-21.55,17.93-45.65,31.5-71.72,41.66a32.66,32.66,0,0,0-4.52,1.93c-.53.3-.68,1.27-1,2,1.7,1.37,3.53,1.53,5.22,2a271.13,271.13,0,0,1,81.16,37.2c27.13,18.45,49.83,41.23,67,69.29a211.74,211.74,0,0,1,28.37,76.71,262.74,262.74,0,0,1,2,66.82,237.17,237.17,0,0,1-21,79.14,240,240,0,0,1-57.57,78c-16.35,14.72-34.91,26.23-54.63,35.9-23.86,11.7-48.89,20.06-74.64,26.39a548.22,548.22,0,0,1-57.13,10.69c-13.84,1.87-27.74,3.3-41.67,4.37-19.68,1.51-39.37,2.56-59.11,2.74-24.49.22-49,.36-73.47-.75-17.08-.77-34.17-1.34-51.23-2.4-13.94-.87-27.85-2.23-41.76-3.55-9.49-.9-18.94-2.1-28.41-3.2C1054.45,2152.42,1053.2,2152.07,1052.05,2151.84Zm115.4-85.28c1.38.4,2.78.74,4.19,1,5.87.74,11.74,1.6,17.63,2.08,14.91,1.22,29.85,2.09,44.82,2.17,5.92,0,11.84.09,17.76.2,24.53.48,49-.47,73.29-4a312.55,312.55,0,0,0,46.17-10.08c20.24-6.15,39.44-14.54,57-26.41,23.75-16,41.85-36.82,53.3-63.2a164.82,164.82,0,0,0,13-55.42c1.09-16.93.58-33.84-2.7-50.58a149.51,149.51,0,0,0-19.52-50.78c-12-19.34-28-34.77-46.93-47.16s-39.45-20.88-61.07-27c-31.21-8.84-63.15-12.55-95.49-12.79-30.75-.23-61.51,0-92.26,0h-6.41a16.5,16.5,0,0,0-2.76.57Zm.15-429.93h102a336.81,336.81,0,0,0,45.23-2.81,241.24,241.24,0,0,0,47.88-11.2c20.48-7.17,39.46-17.13,56-31.3,30.24-25.85,46.13-58.78,48.21-98.41a166.62,166.62,0,0,0-2.74-39.25c-6.63-35.47-24.78-63.21-55.38-82.63-13.68-8.69-28.5-14.88-44-19.49-26.64-7.91-54-11.09-81.71-11.76q-27.6-.66-55.19.76a446.34,446.34,0,0,0-51.46,5.26c-3,.51-6.2.57-9.21,2.34v285.44c0,.82.19,1.61.33,3Z"/></g></g></g></svg>